# File created by Blade
# Date/Time:  Tue Jan 27 20:12:02 2015
# Frame Rate: 120.000 fps
#------------------------------------------------------
:FULLY-SPECIFIED
:DEGREES
3362
root 7.706009 32.566587 -5.230606 6.849922 -33.043813 -4.877689
Spine 4.274760 21.018374 -5.828447
Head 15.558482 -2.005110 1.137120
LeftShoulder -18.327217 3.580936 29.413968
LeftArm -29.591391 -48.157131 -53.584187
LeftForeArm -14.935874 -0.000000 86.901963
LeftHand 20.175527 -0.000000 5.918829
LeftHandThumb1 -26.253704 0.000000 33.147579
RightShoulder -16.066271 -21.747778 -23.873096
RightArm 8.538283 -39.715483 93.205667
RightForeArm -23.575780 0.000000 102.659899
RightHand 19.050271 -0.000000 0.084599
RightHandThumb1 -24.326973 -0.000000 -32.862282
LeftUpLeg 0.268431 10.910009 -4.542937
LeftLeg -3.768210 -0.000000 0.000000
LeftFoot -22.387445 29.883248 -23.511202
LeftToeBase 23.221241 -0.000000 -0.000000
RightUpLeg 11.309775 -61.355574 -27.248307
RightLeg 82.806272 -0.000000 -0.000000
RightFoot 24.160772 -24.128729 24.526649
RightToeBase 17.425424 -0.000000 -0.000000
3363
root 7.675755 32.560357 -5.209597 6.673775 -32.903949 -4.766342
Spine 4.284916 20.994882 -5.842538
Head 15.532186 -2.084642 1.209495
LeftShoulder -18.300461 3.492535 29.471165
LeftArm -29.467277 -48.062555 -53.690126
LeftForeArm -14.811846 -0.000000 86.885924
LeftHand 20.161219 -0.000000 5.814670
LeftHandThumb1 -26.253704 0.000000 33.147579
RightShoulder -16.099120 -21.698273 -23.855564
RightArm 8.423794 -39.682557 93.293010
RightForeArm -23.640676 0.000000 102.677594
RightHand 19.054977 -0.000000 0.213154
RightHandThumb1 -24.326973 -0.000000 -32.862282
LeftUpLeg 0.417289 10.828779 -4.567408
LeftLeg -3.750175 -0.000000 0.000000
LeftFoot -22.399467 29.911929 -23.515517
LeftToeBase 23.135287 -0.000000 -0.000000
RightUpLeg 10.961917 -60.805263 -26.616885
RightLeg 82.450073 -0.000000 -0.000000
RightFoot 23.742632 -24.105661 24.451248
RightToeBase 17.976464 -0.000000 -0.000000
3364
root 7.644094 32.555258 -5.187094 6.489508 -32.725194 -4.666891
Spine 4.303096 20.923731 -5.833479
Head 15.535344 -2.110293 1.313420
LeftShoulder -18.236507 3.452684 29.518634
LeftArm -29.369922 -48.006893 -53.789379
LeftForeArm -14.677170 -0.000000 86.892757
LeftHand 20.021765 -0.000000 5.828413
LeftHandThumb1 -26.253704 0.000000 33.147579
RightShoulder -16.105094 -21.729084 -23.822424
RightArm 8.423020 -39.655352 93.302306
RightForeArm -23.618116 -0.000000 102.679700
RightHand 19.077331 -0.000000 0.285660
RightHandThumb1 -24.326973 -0.000000 -32.862282
LeftUpLeg 0.563290 10.752729 -4.585119
LeftLeg -3.667270 -0.000000 0.000000
LeftFoot -22.313014 29.846496 -23.326163
LeftToeBase 23.068925 -0.000000 -0.000000
RightUpLeg 10.713333 -60.227144 -26.027836
RightLeg 82.073539 -0.000000 -0.000000
RightFoot 22.993319 -24.117742 25.013783
RightToeBase 18.409993 -0.000000 -0.000000
3365
root 7.614430 32.549362 -5.165860 6.308215 -32.556626 -4.559591
Spine 4.325987 20.843768 -5.823546
Head 15.500605 -2.122584 1.371896
LeftShoulder -18.192641 3.366234 29.592634
LeftArm -29.326819 -47.897837 -53.881269
LeftForeArm -14.569041 -0.000000 86.900855
LeftHand 20.048317 -0.000000 5.483372
LeftHandThumb1 -26.253704 0.000000 33.147579
RightShoulder -16.144737 -21.748609 -23.785295
RightArm 8.471251 -39.688101 93.275950
RightForeArm -23.578488 -0.000000 102.660639
RightHand 19.049602 -0.000000 0.189517
RightHandThumb1 -24.326973 -0.000000 -32.862282
LeftUpLeg 0.680232 10.826911 -4.616086
LeftLeg -3.563634 -0.000000 0.000000
LeftFoot -22.211928 29.700303 -23.126060
LeftToeBase 22.938292 -0.000000 -0.000000
RightUpLeg 10.221203 -59.608703 -25.199759
RightLeg 81.696620 -0.000000 -0.000000
RightFoot 22.514773 -24.080349 24.766204
RightToeBase 18.100550 -0.000000 -0.000000
